<svg width="43" height="43" viewBox="0 0 43 43" fill="none" xmlns="http://www.w3.org/2000/svg"><path d="M6.99967 9.82767L0.513672 3.34367L3.34367 0.513672L9.82767 6.99967H40.3117C40.6234 6.99965 40.9308 7.0725 41.2094 7.21241C41.488 7.35231 41.73 7.5554 41.9161 7.80546C42.1023 8.05553 42.2274 8.34564 42.2815 8.65265C42.3356 8.95965 42.3171 9.27505 42.2277 9.57367L37.4277 25.5737C37.3042 25.9858 37.0511 26.3472 36.7059 26.6041C36.3607 26.861 35.9419 26.9997 35.5117 26.9997H10.9997V30.9997H32.9997V34.9997H8.99967C8.46924 34.9997 7.96053 34.789 7.58546 34.4139C7.21039 34.0388 6.99967 33.5301 6.99967 32.9997V9.82767ZM10.9997 10.9997V22.9997H34.0237L37.6237 10.9997H10.9997ZM9.99967 42.9997C9.20402 42.9997 8.44096 42.6836 7.87835 42.121C7.31574 41.5584 6.99967 40.7953 6.99967 39.9997C6.99967 39.204 7.31574 38.441 7.87835 37.8784C8.44096 37.3157 9.20402 36.9997 9.99967 36.9997C10.7953 36.9997 11.5584 37.3157 12.121 37.8784C12.6836 38.441 12.9997 39.204 12.9997 39.9997C12.9997 40.7953 12.6836 41.5584 12.121 42.121C11.5584 42.6836 10.7953 42.9997 9.99967 42.9997ZM33.9997 42.9997C33.204 42.9997 32.441 42.6836 31.8784 42.121C31.3157 41.5584 30.9997 40.7953 30.9997 39.9997C30.9997 39.204 31.3157 38.441 31.8784 37.8784C32.441 37.3157 33.204 36.9997 33.9997 36.9997C34.7953 36.9997 35.5584 37.3157 36.121 37.8784C36.6836 38.441 36.9997 39.204 36.9997 39.9997C36.9997 40.7953 36.6836 41.5584 36.121 42.121C35.5584 42.6836 34.7953 42.9997 33.9997 42.9997Z" fill="black"></path></svg>