<svg width="40" height="44" viewBox="0 0 40 44" fill="none" xmlns="http://www.w3.org/2000/svg"><path d="M37.7778 43.6701H2.22222C1.63285 43.6701 1.06762 43.44 0.650874 43.0305C0.234126 42.6211 0 42.0657 0 41.4866V2.1835C0 1.6044 0.234126 1.04902 0.650874 0.639533C1.06762 0.230047 1.63285 0 2.22222 0H37.7778C38.3671 0 38.9324 0.230047 39.3491 0.639533C39.7659 1.04902 40 1.6044 40 2.1835V41.4866C40 42.0657 39.7659 42.6211 39.3491 43.0305C38.9324 43.44 38.3671 43.6701 37.7778 43.6701ZM35.5556 39.3031V4.36701H4.44444V39.3031H35.5556ZM11.1111 10.9175H28.8889V15.2845H11.1111V10.9175ZM11.1111 19.6515H28.8889V24.0185H11.1111V19.6515ZM11.1111 28.3855H28.8889V32.7526H11.1111V28.3855Z" fill="black"></path></svg>